<svg version="1" xmlns="http://www.w3.org/2000/svg" width="1365.333" height="1365.333" viewBox="0 0 1024.000000 1024.000000"><path d="M442.9 175.4c-.2.2-3.3.7-6.9 1-7.1.7-15.9 2.1-23 3.6-2.5.5-5.6 1.2-7 1.4-5.6.9-25 5.9-35.9 9.2-52.3 15.8-100.9 40.4-145.8 74-6.2 4.7-11.8 9-12.5 9.7-.7.7-3.1 2.6-5.3 4.2-2.1 1.7-4.7 3.7-5.6 4.5-.8.8-5.1 4.6-9.5 8.5-12.2 10.8-33.2 31.3-40.9 39.9-.6.6-4.2 4.7-8.2 9.1-6.8 7.7-22.9 31.6-34.5 51.5-24.3 41.4-36.8 73.3-43.3 110.5-2.7 15.4-2.8 53.9-.1 69.2 6 35.1 23 63.8 48.7 82.4 12.9 9.2 35 18.3 49.9 20.4 2.5.4 5.7.9 7.2 1.1 4.4.7 21.7.7 29.3 0 39-3.5 73.8-19.4 109.5-49.9 14.1-12.1 26.3-23.8 38-36.7 4.7-5.1 9-9.8 9.5-10.4.6-.6 5.1-6.3 10-12.6 25.9-33.1 47.1-70.4 63.4-111.5 7.4-18.5 10.4-28.9 12.7-43.5.3-1.9.9-5.4 1.3-7.7.5-2.3.8-11.3.9-20 .1-20.7-2.3-35.5-7.5-47.3-2.2-4.8-9.5-15.9-12.9-19.5-21.7-22.8-55-27.2-83.8-11.1-13.2 7.4-24.2 20.4-28.8 34.1-1.8 5.4-2.3 9.2-2.3 16.5 0 8.4.3 10.2 2.8 15.2 4.2 8.6 12 13.6 22 14.2 21.8 1.2 40-16.3 39.2-37.5-.5-12.3-7.1-17.7-24.8-20.3-13.7-2.1-13.9-2.3-7.8-7.8 9.2-8.3 20.2-11.8 35.1-11.2 15.5.6 25.7 3.3 34.6 9.4 10.4 6.9 16.3 16.8 18.9 31.5.2 1.6.7 4.1 1 5.5 2.5 12.6 2.7 38.7.2 50.5-.9 4.4-1.8 9.1-2.1 10.5-1.8 10.4-8.9 33.7-14.7 48.3-18.9 47.4-50.1 91.5-98.4 138.7-16.9 16.5-18.9 18.2-32.3 27.9-19.1 13.6-45.3 25.1-67.7 29.7-42.6 8.7-75.1.9-100.1-24-20.2-20.3-28.1-42.7-28.8-82.1-.4-23.2 2.3-45.8 8-66.1.8-2.8 1.6-6 1.9-7 .4-2.1 3.3-10.8 6.5-19.9 8.4-23.6 25.4-56 43.3-82.5 5.4-8 22.7-31 25.5-33.9.9-.9 4-4.4 6.7-7.6 18-21.3 44.9-47 71.5-68.1 37.4-29.8 67.7-48.1 103.5-62.5 11.2-4.4 32.8-11.5 38.5-12.5 1.4-.3 3.9-.9 5.5-1.4 12.6-3.6 40.7-7 62-7.4 27.1-.6 42.8 1.7 60.9 8.6 22.4 8.6 38.5 22.7 47.2 41.3 5.5 11.9 6.7 18.3 7 35.5.4 36.9-8.2 64.7-32.8 105.3-9.5 15.6-39.7 59.9-66.3 97.2-.8 1.1-3.1 4.2-5 7-14.6 20.4-57.8 80.3-59 81.7-.7.9-1.8 2.5-2.4 3.6-.6 1.1-1.7 2.6-2.4 3.4-.7.7-3.7 4.7-6.5 8.8-2.9 4.1-12.1 17.4-20.6 29.5-17.3 24.6-24.9 38.5-30.6 55.5-2.2 6.8-2.5 7.8-4 15-.5 2.5-1.2 5.6-1.4 6.9-1.9 9-2.6 27.7-1.5 39.1 1.2 12.1 2.4 17.7 5.5 26 11.4 30.4 36.2 47.4 67.4 46.3 4.7-.2 9.2-.4 10-.4 3.1-.2 17.3-4 24.3-6.6 15.7-5.7 37.1-18.2 59.2-34.4 9.1-6.7 24.3-18.6 25.5-20 .3-.3 4.6-4.1 9.5-8.4 11.3-9.9 38-36.6 50.9-51 11.2-12.5 19.2-21.5 20.3-23 .5-.6 4.6-5.5 9.3-11 9.5-11.1 20.9-25.3 31.5-39 3.8-5 7.1-9.2 7.4-9.5.3-.3 3.2-4 6.5-8.3 3.2-4.3 6-7.6 6.3-7.4.5.6-5.9 18.1-16.7 45.7-17.9 45.5-24.4 68.3-26.7 93.5-1.2 13.4-.7 31.6 1.2 41.5 2.8 14.8 5.1 22.3 10 32.7 10.9 23.2 26.3 39.4 46.6 49.3 13.5 6.5 22.9 8.5 39.9 8.4 34.1-.1 68.5-17.3 100.1-50.1 9.5-9.9 11.2-13.5 7.5-16.4-2-1.7-2.2-1.6-7.1 2.5-14.7 12.5-42 33.8-48.5 37.8-16.4 10.2-34.9 16-50.9 16-14.8 0-26.8-3.6-39.1-11.8-19.8-13.1-29.8-30.8-29.8-52.4 0-14.3 1.4-19.6 17-63 10-27.9 16.3-43.5 27.4-69 7.4-17 35-69.1 49.3-93 1.1-1.9 3.2-5.5 4.6-8 1.4-2.5 3-5.2 3.5-6 .5-.8 5.8-9.6 11.8-19.5 19.7-32.6 26.5-43.4 52.8-83 28.9-43.7 48.1-71.5 95.7-138.3 25.8-36.3 38.2-55 37.2-56-.2-.2-5.7-.3-12.2-.2-18.4.3-19.2.3-29.8-.5-8.8-.6-10.8-.4-16.5 1.5-11.9 4-13.2 5.5-39.5 44.5-29.7 44.1-41.6 61.6-52.3 77.5-15.1 22.2-39.4 57.7-43.1 63-1.7 2.5-5.3 7.6-7.9 11.5-2.6 3.8-7 10.1-9.7 14-2.7 3.8-8.8 12.6-13.6 19.5-4.8 6.9-10 14.3-11.6 16.5-1.7 2.2-7 9.6-11.8 16.5-11.7 16.5-39.6 55.2-40.9 56.7-1.6 1.8-2.5 2.9-9 11.8-14 18.8-49.3 62.9-56.1 70.1-.5.6-3.2 3.7-6 6.9-2.7 3.2-6.1 7-7.5 8.5-1.4 1.5-6.1 6.7-10.5 11.6-13.4 14.8-43.8 44.8-59.1 58.4-43.3 38.4-66.2 52.4-94.1 57.6-1.3.2-3.5.6-5 .9-1.6.3-6.6.5-11.3.6-26 0-43.3-16.8-43.2-42 .1-21.1 8.6-47.9 19.5-61.6.4-.6 5.8-8.2 11.9-17 11-15.9 47.3-66.8 73.5-103 7.5-10.5 22.4-31.2 33-46 10.6-14.9 19.6-27.5 20.1-28 1.3-1.6 10-14.1 19.8-28.5 24.2-35.7 37.7-61.7 46.3-89.6 1.7-5.5 3.3-10.9 3.5-12 .3-1 .9-3.9 1.4-6.4 1.1-4.9 1.7-8.7 3.1-19.5.9-7.4.7-38.6-.4-44.5-.3-1.9-1.1-6-1.6-9-.6-3-1.2-6.6-1.5-8-1-5.6-6.9-22-10.4-29.2-13.1-26.4-32.2-44.4-58-54.6-10.5-4.1-18.8-6.1-34.5-8.2-4.4-.6-9.3-1.4-11-1.6-3.4-.6-42.1-1.4-42.6-1z"/></svg>